{
  "accessors": [
    {
      "bufferView": 2,
      "componentType": 5126,
      "count": 2122,
      "max": [
        2.093918561935425,
        0.3858867287635803,
        1.3997071981430054
      ],
      "min": [
        -1.559861660003662,
        -0.39978694915771484,
        -1.4287644624710083
      ],
      "type": "VEC3"
    },
    {
      "bufferView": 2,
      "byteOffset": 25464,
      "componentType": 5126,
      "count": 2122,
      "max": [
        0.9886850714683533,
        1.0,
        1.0
      ],
      "min": [
        -0.9882760643959045,
        -1.0,
        -1.0
      ],
      "type": "VEC3"
    },
    {
      "bufferView": 3,
      "componentType": 5126,
      "count": 2122,
      "max": [
        0.9999995231628418,
        1.0,
        1.0,
        1.0
      ],
      "min": [
        -0.9999993443489075,
        -1.0,
        -0.9882786273956299,
        -1.0
      ],
      "type": "VEC4"
    },
    {
      "bufferView": 1,
      "componentType": 5126,
      "count": 2122,
      "max": [
        0.9998130202293396,
        0.998212993144989
      ],
      "min": [
        0.00018699999782256782,
        0.001782999956049025
      ],
      "type": "VEC2"
    },
    {
      "bufferView": 1,
      "byteOffset": 16976,
      "componentType": 5126,
      "count": 2122,
      "max": [
        0.9998130202293396,
        0.998212993144989
      ],
      "min": [
        0.00018699999782256782,
        0.001782999956049025
      ],
      "type": "VEC2"
    },
    {
      "bufferView": 1,
      "byteOffset": 33952,
      "componentType": 5126,
      "count": 2122,
      "max": [
        0.9998130202293396,
        0.998212993144989
      ],
      "min": [
        0.00018699999782256782,
        0.001782999956049025
      ],
      "type": "VEC2"
    },
    {
      "bufferView": 0,
      "componentType": 5125,
      "count": 4659,
      "type": "SCALAR"
    }
  ],
  "asset": {
    "extras": {
      "author": "Twisty_z (https://sketchfab.com/Twisty_z)",
      "license": "CC-BY-4.0 (http://creativecommons.org/licenses/by/4.0/)",
      "source": "https://sketchfab.com/3d-models/wii-console-b13a4c0289144aa9b436d8de72e6a7a0",
      "title": "WII Console"
    },
    "generator": "Sketchfab-12.67.0",
    "version": "2.0"
  },
  "bufferViews": [
    {
      "buffer": 0,
      "byteLength": 18636,
      "name": "floatBufferViews",
      "target": 34963
    },
    {
      "buffer": 0,
      "byteLength": 50928,
      "byteOffset": 18636,
      "byteStride": 8,
      "name": "floatBufferViews",
      "target": 34962
    },
    {
      "buffer": 0,
      "byteLength": 50928,
      "byteOffset": 69564,
      "byteStride": 12,
      "name": "floatBufferViews",
      "target": 34962
    },
    {
      "buffer": 0,
      "byteLength": 33952,
      "byteOffset": 120492,
      "byteStride": 16,
      "name": "floatBufferViews",
      "target": 34962
    }
  ],
  "buffers": [
    {
      "byteLength": 154444,
      "uri": "scene.bin"
    }
  ],
  "images": [
    {
      "uri": "textures/WII_Console_baseColor.png"
    },
    {
      "uri": "textures/WII_Console_metallicRoughness.png"
    },
    {
      "uri": "textures/WII_Console_normal.png"
    }
  ],
  "materials": [
    {
      "doubleSided": true,
      "name": "WII_Console",
      "normalTexture": {
        "index": 2,
        "texCoord": 1
      },
      "pbrMetallicRoughness": {
        "baseColorTexture": {
          "index": 0
        },
        "metallicFactor": 0.0,
        "metallicRoughnessTexture": {
          "index": 1
        }
      }
    }
  ],
  "meshes": [
    {
      "name": "WII_Console_WII_Console_0",
      "primitives": [
        {
          "attributes": {
            "NORMAL": 1,
            "POSITION": 0,
            "TANGENT": 2,
            "TEXCOORD_0": 3,
            "TEXCOORD_1": 4,
            "TEXCOORD_2": 5
          },
          "indices": 6,
          "material": 0,
          "mode": 4
        }
      ]
    }
  ],
  "nodes": [
    {
      "children": [
        1
      ],
      "matrix": [
        1.0,
        0.0,
        0.0,
        0.0,
        0.0,
        2.220446049250313e-16,
        -1.0,
        0.0,
        0.0,
        1.0,
        2.220446049250313e-16,
        0.0,
        0.0,
        0.0,
        0.0,
        1.0
      ],
      "name": "Sketchfab_model"
    },
    {
      "children": [
        2
      ],
      "matrix": [
        0.009999999776482582,
        0.0,
        0.0,
        0.0,
        0.0,
        0.0,
        0.009999999776482582,
        0.0,
        0.0,
        -0.009999999776482582,
        0.0,
        0.0,
        0.0,
        0.0,
        0.0,
        1.0
      ],
      "name": "WII Console.fbx"
    },
    {
      "children": [
        3
      ],
      "name": "RootNode"
    },
    {
      "children": [
        4
      ],
      "matrix": [
        100.0,
        0.0,
        0.0,
        0.0,
        0.0,
        -1.629206793918314e-05,
        -99.99999999999868,
        0.0,
        0.0,
        99.99999999999868,
        -1.629206793918314e-05,
        0.0,
        0.0,
        0.0,
        0.0,
        1.0
      ],
      "name": "WII_Console"
    },
    {
      "mesh": 0,
      "name": "WII_Console_WII_Console_0"
    }
  ],
  "samplers": [
    {
      "magFilter": 9729,
      "minFilter": 9987,
      "wrapS": 10497,
      "wrapT": 10497
    }
  ],
  "scene": 0,
  "scenes": [
    {
      "name": "Sketchfab_Scene",
      "nodes": [
        0
      ]
    }
  ],
  "textures": [
    {
      "sampler": 0,
      "source": 0
    },
    {
      "sampler": 0,
      "source": 1
    },
    {
      "sampler": 0,
      "source": 2
    }
  ]
}
