{
  "accessors": [
    {
      "bufferView": 2,
      "componentType": 5126,
      "count": 15828,
      "max": [
        0.04336287081241608,
        0.10808433592319489,
        0.3901486098766327
      ],
      "min": [
        -0.04307171329855919,
        -0.10633450001478195,
        0.011347859166562557
      ],
      "type": "VEC3"
    },
    {
      "bufferView": 2,
      "byteOffset": 189936,
      "componentType": 5126,
      "count": 15828,
      "max": [
        1.0,
        1.0,
        1.0
      ],
      "min": [
        -1.0,
        -1.0,
        -1.0
      ],
      "type": "VEC3"
    },
    {
      "bufferView": 3,
      "componentType": 5126,
      "count": 15828,
      "max": [
        1.0,
        0.9999995231628418,
        1.0,
        1.0
      ],
      "min": [
        -1.0,
        -1.0,
        -1.0,
        -1.0
      ],
      "type": "VEC4"
    },
    {
      "bufferView": 1,
      "componentType": 5126,
      "count": 15828,
      "max": [
        0.9992350339889526,
        0.9954604506492615
      ],
      "min": [
        0.00032881629886105657,
        0.00032881629886105657
      ],
      "type": "VEC2"
    },
    {
      "bufferView": 1,
      "byteOffset": 126624,
      "componentType": 5126,
      "count": 15828,
      "max": [
        0.9992350339889526,
        0.9954604506492615
      ],
      "min": [
        0.00032881629886105657,
        0.00032881629886105657
      ],
      "type": "VEC2"
    },
    {
      "bufferView": 1,
      "byteOffset": 253248,
      "componentType": 5126,
      "count": 15828,
      "max": [
        0.9992350339889526,
        0.9954604506492615
      ],
      "min": [
        0.00032881629886105657,
        0.00032881629886105657
      ],
      "type": "VEC2"
    },
    {
      "bufferView": 0,
      "componentType": 5125,
      "count": 51495,
      "type": "SCALAR"
    },
    {
      "bufferView": 2,
      "byteOffset": 379872,
      "componentType": 5126,
      "count": 136,
      "max": [
        0.026824479922652245,
        0.05801938474178314,
        0.37665000557899475
      ],
      "min": [
        -0.02740049920976162,
        -0.09995850175619125,
        0.06458426266908646
      ],
      "type": "VEC3"
    },
    {
      "bufferView": 2,
      "byteOffset": 381504,
      "componentType": 5126,
      "count": 136,
      "max": [
        0.9996616840362549,
        4.0328753669882644e-08,
        -0.025921180844306946
      ],
      "min": [
        -0.9996616840362549,
        -0.13376672565937042,
        -0.05017108842730522
      ],
      "type": "VEC3"
    },
    {
      "bufferView": 1,
      "byteOffset": 379872,
      "componentType": 5126,
      "count": 136,
      "max": [
        0.8764821887016296,
        0.9843122363090515
      ],
      "min": [
        0.28008711338043213,
        0.1413225531578064
      ],
      "type": "VEC2"
    },
    {
      "bufferView": 0,
      "byteOffset": 205980,
      "componentType": 5125,
      "count": 390,
      "type": "SCALAR"
    },
    {
      "bufferView": 2,
      "byteOffset": 383136,
      "componentType": 5126,
      "count": 1859,
      "max": [
        0.013985377736389637,
        0.09518136084079742,
        0.33588460087776184
      ],
      "min": [
        -0.014561397023499012,
        0.08706545829772949,
        0.16553537547588348
      ],
      "type": "VEC3"
    },
    {
      "bufferView": 2,
      "byteOffset": 405444,
      "componentType": 5126,
      "count": 1859,
      "max": [
        1.0,
        1.0,
        1.0
      ],
      "min": [
        -1.0,
        -0.007014872506260872,
        -1.0
      ],
      "type": "VEC3"
    },
    {
      "bufferView": 3,
      "byteOffset": 253248,
      "componentType": 5126,
      "count": 1859,
      "max": [
        1.0,
        0.9999999403953552,
        1.0,
        1.0
      ],
      "min": [
        -1.0,
        -0.9999840259552002,
        -1.0,
        -1.0
      ],
      "type": "VEC4"
    },
    {
      "bufferView": 1,
      "byteOffset": 380960,
      "componentType": 5126,
      "count": 1859,
      "max": [
        0.5951274633407593,
        0.6866532564163208
      ],
      "min": [
        0.03298938274383545,
        0.04669602960348129
      ],
      "type": "VEC2"
    },
    {
      "bufferView": 1,
      "byteOffset": 395832,
      "componentType": 5126,
      "count": 1859,
      "max": [
        0.5951274633407593,
        0.6866532564163208
      ],
      "min": [
        0.03298938274383545,
        0.04669602960348129
      ],
      "type": "VEC2"
    },
    {
      "bufferView": 1,
      "byteOffset": 410704,
      "componentType": 5126,
      "count": 1859,
      "max": [
        0.5951274633407593,
        0.6866532564163208
      ],
      "min": [
        0.03298938274383545,
        0.04669602960348129
      ],
      "type": "VEC2"
    },
    {
      "bufferView": 0,
      "byteOffset": 207540,
      "componentType": 5125,
      "count": 3333,
      "type": "SCALAR"
    }
  ],
  "asset": {
    "extras": {
      "author": "kiddhunter2 (https://sketchfab.com/kiddhunter2)",
      "license": "CC-BY-4.0 (http://creativecommons.org/licenses/by/4.0/)",
      "source": "https://sketchfab.com/3d-models/ps5-11af69b098cd4b28bde7a59bf2bf395a",
      "title": "Ps5"
    },
    "generator": "Sketchfab-12.66.0",
    "version": "2.0"
  },
  "bufferViews": [
    {
      "buffer": 0,
      "byteLength": 220872,
      "name": "floatBufferViews",
      "target": 34963
    },
    {
      "buffer": 0,
      "byteLength": 425576,
      "byteOffset": 220872,
      "byteStride": 8,
      "name": "floatBufferViews",
      "target": 34962
    },
    {
      "buffer": 0,
      "byteLength": 427752,
      "byteOffset": 646448,
      "byteStride": 12,
      "name": "floatBufferViews",
      "target": 34962
    },
    {
      "buffer": 0,
      "byteLength": 282992,
      "byteOffset": 1074200,
      "byteStride": 16,
      "name": "floatBufferViews",
      "target": 34962
    }
  ],
  "buffers": [
    {
      "byteLength": 1357192,
      "uri": "scene.bin"
    }
  ],
  "images": [
    {
      "uri": "textures/codes_console_PS5_001_baseColor.png"
    },
    {
      "uri": "textures/codes_console_PS5_001_metallicRoughness.png"
    },
    {
      "uri": "textures/codes_console_PS5_001_normal.png"
    }
  ],
  "materials": [
    {
      "doubleSided": true,
      "name": "codes_console_PS5_001",
      "normalTexture": {
        "index": 2
      },
      "pbrMetallicRoughness": {
        "baseColorTexture": {
          "index": 0
        },
        "metallicRoughnessTexture": {
          "index": 1
        }
      }
    },
    {
      "doubleSided": true,
      "emissiveFactor": [
        0.0,
        0.0,
        1.0
      ],
      "name": "codes_console_PS5_light_blue_001",
      "pbrMetallicRoughness": {
        "baseColorFactor": [
          0.0,
          0.37517,
          0.8,
          1.0
        ],
        "metallicFactor": 0.0,
        "roughnessFactor": 0.9270859411965192
      }
    },
    {
      "doubleSided": true,
      "name": "codes_console_PS5_001.001",
      "normalTexture": {
        "index": 2
      },
      "pbrMetallicRoughness": {
        "baseColorTexture": {
          "index": 0
        },
        "metallicFactor": 0.0,
        "roughnessFactor": 0.8211145618000169
      }
    }
  ],
  "meshes": [
    {
      "name": "codes_console_PS5_001_codes_console_PS5_001_0",
      "primitives": [
        {
          "attributes": {
            "NORMAL": 1,
            "POSITION": 0,
            "TANGENT": 2,
            "TEXCOORD_0": 3,
            "TEXCOORD_1": 4,
            "TEXCOORD_2": 5
          },
          "indices": 6,
          "material": 0,
          "mode": 4
        }
      ]
    },
    {
      "name": "codes_console_PS5_001_codes_console_PS5_light_blue_001_0",
      "primitives": [
        {
          "attributes": {
            "NORMAL": 8,
            "POSITION": 7,
            "TEXCOORD_0": 9
          },
          "indices": 10,
          "material": 1,
          "mode": 4
        }
      ]
    },
    {
      "name": "codes_console_PS5_001_codes_console_PS5_001.001_0",
      "primitives": [
        {
          "attributes": {
            "NORMAL": 12,
            "POSITION": 11,
            "TANGENT": 13,
            "TEXCOORD_0": 14,
            "TEXCOORD_1": 15,
            "TEXCOORD_2": 16
          },
          "indices": 17,
          "material": 2,
          "mode": 4
        }
      ]
    }
  ],
  "nodes": [
    {
      "children": [
        1
      ],
      "matrix": [
        1.0,
        0.0,
        0.0,
        0.0,
        0.0,
        2.220446049250313e-16,
        -1.0,
        0.0,
        0.0,
        1.0,
        2.220446049250313e-16,
        0.0,
        0.0,
        0.0,
        0.0,
        1.0
      ],
      "name": "Sketchfab_model"
    },
    {
      "children": [
        2
      ],
      "matrix": [
        0.009999999776482582,
        0.0,
        0.0,
        0.0,
        0.0,
        0.0,
        0.009999999776482582,
        0.0,
        0.0,
        -0.009999999776482582,
        0.0,
        0.0,
        0.0,
        0.0,
        0.0,
        1.0
      ],
      "name": "codes_console_PS5_001.fbx"
    },
    {
      "children": [
        3
      ],
      "name": "RootNode"
    },
    {
      "children": [
        4,
        5,
        6
      ],
      "matrix": [
        100.0,
        0.0,
        0.0,
        0.0,
        0.0,
        -1.629206793918314e-05,
        -99.99999999999868,
        0.0,
        0.0,
        99.99999999999868,
        -1.629206793918314e-05,
        0.0,
        0.0,
        0.0,
        0.0,
        1.0
      ],
      "name": "codes_console_PS5_001"
    },
    {
      "mesh": 0,
      "name": "codes_console_PS5_001_codes_console_PS5_001_0"
    },
    {
      "mesh": 1,
      "name": "codes_console_PS5_001_codes_console_PS5_light_blue_001_0"
    },
    {
      "mesh": 2,
      "name": "codes_console_PS5_001_codes_console_PS5_001.001_0"
    }
  ],
  "samplers": [
    {
      "magFilter": 9729,
      "minFilter": 9987,
      "wrapS": 10497,
      "wrapT": 10497
    }
  ],
  "scene": 0,
  "scenes": [
    {
      "name": "Sketchfab_Scene",
      "nodes": [
        0
      ]
    }
  ],
  "textures": [
    {
      "sampler": 0,
      "source": 0
    },
    {
      "sampler": 0,
      "source": 1
    },
    {
      "sampler": 0,
      "source": 2
    }
  ]
}
